# xmcd
#
# Track frame offsets:
#	150
#	14100
#	26342
#	46000
#	64500
#	80100
#	99385
#	115977
#	134530
#	136537
#	148175
#	159557
#	182725
#	204275
#	220700
#	235250
#	252575
#
# Disc length: 3507 seconds
#
# Revision: 1
# Processed by: cddbd v1.5.2PL0 Copyright (c) Steve Scherf et al.
# Submitted via: audiograbber 1.83.01
#
DISCID=ed0db111
DTITLE=Rapid Transit - WANTED dead or still live
DYEAR=1994
DGENRE=Country
TTITLE0=Born Country
TTITLE1=New Way
TTITLE2=Tulsa Time
TTITLE3=Setting Me Up
TTITLE4=Amarillo by Morning
TTITLE5=Achy Breaky Heart
TTITLE6=Good Hearted Woman
TTITLE7=If You Gonna Play In Texas
TTITLE8=Pit Stop
TTITLE9=King Of The Road
TTITLE10=Battle Of New Orleans
TTITLE11=Orange Blossom Special
TTITLE12=Ghostriders
TTITLE13=For Ever And Ever Amen
TTITLE14=You Ain't Going Nowhere
TTITLE15=Who's Gonna Pay The Bills ?
TTITLE16=Jailbreak
EXTD=
EXTT0=
EXTT1=
EXTT2=
EXTT3=
EXTT4=
EXTT5=
EXTT6=
EXTT7=
EXTT8=
EXTT9=
EXTT10=
EXTT11=
EXTT12=
EXTT13=
EXTT14=
EXTT15=
EXTT16=
PLAYORDER=
